<svg xmlns="http://www.w3.org/2000/svg" xmlns:xlink="http://www.w3.org/1999/xlink" width="18px" height="15px" viewBox="0 0 18 15" version="1.1">
<g>
<path style="fill: #a3bbc8" d="M 3.375 14.191406 L 3.375 11.25 L 2.4375 11.25 C 1.921875 11.25 1.5 10.828125 1.5 10.3125 L 1.5 2.1875 C 1.5 1.671875 1.921875 1.25 2.4375 1.25 L 15.5625 1.25 C 16.078125 1.25 16.5 1.671875 16.5 2.1875 L 16.5 10.3125 C 16.5 10.828125 16.078125 11.25 15.5625 11.25 L 6.316406 11.25 Z M 2.4375 1.875 C 2.265625 1.875 2.125 2.015625 2.125 2.1875 L 2.125 10.3125 C 2.125 10.484375 2.265625 10.625 2.4375 10.625 L 4 10.625 L 4 12.683594 L 6.058594 10.625 L 15.5625 10.625 C 15.734375 10.625 15.875 10.484375 15.875 10.3125 L 15.875 2.1875 C 15.875 2.015625 15.734375 1.875 15.5625 1.875 Z M 2.4375 1.875 "/>
<path style="fill: #a3bbc8" d="M 7.125 6.25 C 7.125 6.59375 6.84375 6.875 6.5 6.875 C 6.15625 6.875 5.875 6.59375 5.875 6.25 C 5.875 5.90625 6.15625 5.625 6.5 5.625 C 6.84375 5.625 7.125 5.90625 7.125 6.25 Z M 7.125 6.25 "/>
<path style="fill: #a3bbc8" d="M 12.125 6.25 C 12.125 6.59375 11.84375 6.875 11.5 6.875 C 11.15625 6.875 10.875 6.59375 10.875 6.25 C 10.875 5.90625 11.15625 5.625 11.5 5.625 C 11.84375 5.625 12.125 5.90625 12.125 6.25 Z M 12.125 6.25 "/>
<path style="fill: #a3bbc8" d="M 9.625 6.25 C 9.625 6.59375 9.34375 6.875 9 6.875 C 8.65625 6.875 8.375 6.59375 8.375 6.25 C 8.375 5.90625 8.65625 5.625 9 5.625 C 9.34375 5.625 9.625 5.90625 9.625 6.25 Z M 9.625 6.25 "/>
</g>
</svg>
