<svg xmlns="http://www.w3.org/2000/svg" xmlns:xlink="http://www.w3.org/1999/xlink" width="11px" height="11px" viewBox="0 0 11 11" version="1.1"><g id="surface1">
<path style="fill: #fff" d="M 5.5 6.1875 C 7.207031 6.1875 8.59375 4.800781 8.59375 3.09375 C 8.59375 1.386719 7.207031 0 5.5 0 C 3.792969 0 2.40625 1.386719 2.40625 3.09375 C 2.40625 4.800781 3.792969 6.1875 5.5 6.1875 Z M 7.542969 6.875 L 3.4375 6.875 C 1.539062 6.875 0 8.414062 0 10.3125 C 0 10.691406 0.308594 11 0.667969 11 L 10.3125 11 C 10.691406 11 10.980469 10.691406 10.980469 10.3125 C 11 8.414062 9.460938 6.875 7.542969 6.875 Z M 7.542969 6.875 "/>
</g>
</svg>
